<svg width="49" height="61" viewBox="0 0 49 61" fill="none" xmlns="http://www.w3.org/2000/svg">
<path d="M24.5 6.1C29.547 6.1 33.6875 10.2236 33.6875 15.25V24.4H15.3125V15.25C15.3125 10.2236 19.453 6.1 24.5 6.1ZM39.8125 24.4V15.25C39.8125 6.8564 32.928 0 24.5 0C16.072 0 9.1875 6.8564 9.1875 15.25V24.4H6.125C4.50055 24.4 2.94263 25.0427 1.79397 26.1866C0.64531 27.3306 0 28.8822 0 30.5V54.9C0 56.5178 0.64531 58.0694 1.79397 59.2133C2.94263 60.3573 4.50055 61 6.125 61H42.875C44.4995 61 46.0574 60.3573 47.206 59.2133C48.3547 58.0694 49 56.5178 49 54.9V30.5C49 28.8822 48.3547 27.3306 47.206 26.1866C46.0574 25.0427 44.4995 24.4 42.875 24.4H39.8125ZM6.125 30.5H42.875V54.9H6.125V30.5Z" fill="#08514C"/>
</svg>
