<svg width="55" height="61" viewBox="0 0 55 61" fill="none" xmlns="http://www.w3.org/2000/svg">
<path d="M27.5 6.05346C24.2585 6.05346 21.1497 7.32901 18.8576 9.59949C16.5655 11.87 15.2778 14.9494 15.2778 18.1604C15.2778 21.3713 16.5655 24.4508 18.8576 26.7213C21.1497 28.9917 24.2585 30.2673 27.5 30.2673C30.7415 30.2673 33.8503 28.9917 36.1424 26.7213C38.4345 24.4508 39.7222 21.3713 39.7222 18.1604C39.7222 14.9494 38.4345 11.87 36.1424 9.59949C33.8503 7.32901 30.7415 6.05346 27.5 6.05346ZM9.16667 18.1604C9.16667 13.3439 11.0982 8.72478 14.5364 5.31905C17.9745 1.91332 22.6377 0 27.5 0C32.3623 0 37.0255 1.91332 40.4636 5.31905C43.9018 8.72478 45.8333 13.3439 45.8333 18.1604C45.8333 22.9768 43.9018 27.596 40.4636 31.0017C37.0255 34.4074 32.3623 36.3208 27.5 36.3208C22.6377 36.3208 17.9745 34.4074 14.5364 31.0017C11.0982 27.596 9.16667 22.9768 9.16667 18.1604ZM15.2778 48.4277C12.8466 48.4277 10.515 49.3843 8.79597 51.0872C7.07688 52.7901 6.11111 55.0996 6.11111 57.5079C6.11111 58.3106 5.78919 59.0805 5.21616 59.6481C4.64313 60.2157 3.86594 60.5346 3.05556 60.5346C2.24517 60.5346 1.46798 60.2157 0.894951 59.6481C0.321924 59.0805 0 58.3106 0 57.5079C0 53.4942 1.60962 49.6449 4.47476 46.8068C7.3399 43.9686 11.2259 42.3742 15.2778 42.3742H39.7222C43.7741 42.3742 47.6601 43.9686 50.5252 46.8068C53.3904 49.6449 55 53.4942 55 57.5079C55 58.3106 54.6781 59.0805 54.1051 59.6481C53.532 60.2157 52.7548 60.5346 51.9444 60.5346C51.1341 60.5346 50.3569 60.2157 49.7838 59.6481C49.2108 59.0805 48.8889 58.3106 48.8889 57.5079C48.8889 55.0996 47.9231 52.7901 46.204 51.0872C44.485 49.3843 42.1534 48.4277 39.7222 48.4277H15.2778Z" fill="#08514C"/>
</svg>
